<?xml version="1.0" encoding="UTF-8" standalone="no"?>
<!-- Created with Inkscape (http://www.inkscape.org/) -->

<svg
   version="1.1"
   id="svg9"
   width="479.5531"
   height="115.7282"
   viewBox="0 0 479.5531 115.7282"
   sodipodi:docname="logo.svg"
   inkscape:version="1.1 (c68e22c387, 2021-05-23)"
   xmlns:inkscape="http://www.inkscape.org/namespaces/inkscape"
   xmlns:sodipodi="http://sodipodi.sourceforge.net/DTD/sodipodi-0.dtd"
   xmlns="http://www.w3.org/2000/svg"
   xmlns:svg="http://www.w3.org/2000/svg">
  <defs
     id="defs13" />
  <sodipodi:namedview
     id="namedview11"
     pagecolor="#ffffff"
     bordercolor="#666666"
     borderopacity="1.0"
     inkscape:pageshadow="2"
     inkscape:pageopacity="0.0"
     inkscape:pagecheckerboard="0"
     showgrid="false"
     inkscape:zoom="0.91611625"
     inkscape:cx="221.04182"
     inkscape:cy="157.73107"
     inkscape:window-width="1600"
     inkscape:window-height="837"
     inkscape:window-x="-8"
     inkscape:window-y="-8"
     inkscape:window-maximized="1"
     inkscape:current-layer="g15" />
  <g
     inkscape:groupmode="layer"
     inkscape:label="Image"
     id="g15"
     transform="translate(-52.000138,-27.924122)">
    <path
       style="stroke-width:1;fill:#FFFFFF;"
       d="m 158.45145,141.01746 c -1.1399,-1.44917 -2.0725,-3.24917 -2.0725,-4 0,-1.9426 -1.39673,-1.68926 -3.50008,0.63486 -2.23251,2.46691 -5.1781,2.59132 -5.91898,0.25 -0.30457,-0.9625 -1.23425,-8.20442 -2.06595,-16.09317 -0.83168,-7.88874 -1.69256,-14.63874 -1.91305,-15 -0.22049,-0.36126 -0.91784,-4.92202 -1.54964,-10.135019 -1.00767,-8.31446 -0.95678,-9.61853 0.41457,-10.62129 0.85983,-0.62871 2.60399,-3.11353 3.87594,-5.52182 2.51727,-4.76622 7.54623,-8.40288 8.39051,-6.06758 0.36626,1.01302 0.90527,0.92093 2.37031,-0.40499 1.81168,-1.63948 1.89733,-1.60872 1.91852,0.68887 l 0.0226,2.40499 1.99632,-2.5 1.99631,-2.5 -0.64736,5.25 c -0.35602,2.8875 -0.30641,5.25 0.11025,5.25 0.41666,0 2.55053,-1.61977 4.74182,-3.59948 8.52566,-7.70244 17.68116,-9.36579 26.67813,-4.84686 5.36637,2.69536 7.44119,5.52371 8.60564,11.7309 0.56706,3.02244 0.40031,3.71544 -0.89392,3.71544 -0.87503,0 -2.49374,1.76947 -3.59706,3.93215 -2.4946,4.88987 -4.00339,5.90303 -4.71852,3.16847 -0.30213,-1.15534 -1.03464,-2.10062 -1.62791,-2.10062 -0.59331,0 -2.37037,-1.2375 -3.94901,-2.75 -2.50252,-2.39751 -3.66308,-2.74866 -9.05473,-2.73951 -7.64825,0.013 -15.99811,3.67769 -16.50448,7.24374 -0.17609,1.23983 0.67772,5.964829 1.8972,10.499999 1.21954,4.53517 2.32881,9.89475 2.46514,11.91018 0.13638,2.01542 0.99361,6.63794 1.9051,10.27225 1.62378,6.47471 1.61441,6.66788 -0.4646,9.58763 -1.86285,2.61611 -4.87148,4.97572 -6.34439,4.97572 -0.27127,0 -1.42585,-1.18569 -2.56579,-2.63486 z m 59.47954,-4.28079 c -0.33889,-0.54835 -1.22071,-0.76499 -1.95966,-0.48143 -2.08874,0.80149 -3.43854,-9.48135 -4.16173,-31.70224 -0.73014,-22.432299 -0.57423,-23.083899 7.01007,-29.298659 3.51597,-2.88105 4.69688,-3.40681 5.1281,-2.28304 0.33267,0.8668 1.34663,1.25436 2.49575,0.95387 1.85861,-0.48605 1.93539,0.17805 1.93539,16.74118 0,10.910409 0.58466,20.924619 1.59124,27.255969 1.53068,9.62797 1.51884,10.10563 -0.31186,12.55755 -3.5037,4.6929 -10.41492,8.3802 -11.7273,6.2568 z m 119.44791,-0.0124 c -8.5501,-0.75263 -12.75843,-2.25699 -18.65519,-6.66859 -9.45133,-7.07086 -11.36671,-21.53307 -4.61621,-34.854529 3.06561,-6.04956 14.12362,-17.77748 20.03811,-21.25199 4.02529,-2.36462 4.78949,-2.46652 13.5,-1.80001 7.58497,0.58039 10.16523,1.23399 14.45369,3.6613 6.90427,3.90783 11.35339,9.29604 15.15584,18.35441 3.719,8.859939 3.84981,11.915119 0.87399,20.413479 -1.8184,5.19286 -3.49758,7.65317 -8.75023,12.8208 -3.57501,3.51713 -7.81045,7.08721 -9.41217,7.93351 -3.58535,1.89447 -11.40348,2.37614 -22.58783,1.39162 z m 29.07568,-11.7303 2.42433,-2.65837 -3.24998,2.34643 c -3.38066,2.44069 -3.81288,2.9703 -2.42431,2.9703 0.45406,0 1.91662,-1.19626 3.24996,-2.65836 z m -12.351,-3.75634 c 5.96657,-1.58843 11.79591,-4.89371 12.67606,-7.18733 3.99179,-10.40224 -12.00792,-25.874319 -28.09158,-27.165359 -7.78004,-0.62451 -9.88631,0.60152 -13.58198,7.90594 -5.94591,11.751789 -1.99784,22.807869 9.41597,26.368499 5.69782,1.77749 13.08798,1.80702 19.58153,0.0782 z m 135.27527,15.4896 c -11.27271,-0.80666 -19.96639,-5.2709 -24.49997,-12.58083 -2.68826,-4.33457 -3.00002,-5.67891 -3.00002,-12.93669 0,-7.1638 0.38642,-8.88418 3.34427,-14.892589 4.08107,-8.2896 13.22448,-18.29582 20.17552,-22.07902 4.91481,-2.67499 5.56713,-2.77463 13.81927,-2.11099 13.58734,1.09269 22.32186,6.6644 27.17113,17.3324 1.17321,2.58104 2.54516,5.4651 3.04887,6.40902 2.59043,4.854779 2.78864,9.954199 0.66626,17.140079 -1.88405,6.37886 -2.84733,7.87545 -8.99703,13.97817 -3.78787,3.75895 -8.7639,7.68657 -11.05766,8.72804 -4.30058,1.95259 -6.21884,2.04655 -20.67064,1.01241 z m 29.99996,-12.72509 c 0,-0.72338 -3.85384,1.6049 -4.56739,2.75929 -0.37326,0.6041 0.50164,0.32492 1.94434,-0.62038 1.44271,-0.94531 2.62305,-1.90782 2.62305,-2.13891 z m -8.63929,-4.65741 c 10.98256,-5.02792 11.37556,-11.38482 1.31334,-21.238159 -7.82788,-7.66539 -14.11096,-10.77856 -22.76546,-11.28007 -6.58775,-0.38174 -6.59348,-0.37973 -9.72217,3.41592 -3.35431,4.06938 -6.20019,11.150259 -6.16435,15.338039 0.0334,3.89782 3.48868,10.70511 6.40328,12.61486 7.97772,5.22717 20.97364,5.71004 30.93536,1.14941 z M 407.72658,131.6682 c -12.70227,-6.34739 -23.32811,-19.10854 -23.32811,-28.01588 0,-8.742299 11.85194,-24.429379 23.98046,-31.740069 6.66569,-4.01793 18.33809,-7.25993 26.1384,-7.25993 7.18866,0 7.34188,-0.0549 11.48045,-4.11666 2.30704,-2.26417 4.68187,-3.81551 5.27742,-3.44742 1.78212,1.1014 0.39806,15.32955 -2.24353,23.06408 -2.20373,6.45217 -2.26555,7.14357 -0.79025,8.83454 1.49842,1.71758 1.29337,2.12472 -3.21702,6.38624 -4.69862,4.43941 -4.86191,4.50516 -6.61995,2.66546 -1.54796,-1.61994 -1.68954,-2.7925 -1.00309,-8.30539 1.01869,-8.17976 0.13194,-10.40181 -4.96487,-12.44111 -6.06124,-2.42524 -10.00219,-2.06071 -15.51448,1.43502 -6.57252,4.16818 -16.07172,13.37306 -17.59446,17.04927 -1.0811,2.60986 -0.99543,3.31032 0.65363,5.346369 1.04371,1.28866 3.47272,4.35155 5.39773,6.80641 5.72715,7.30357 9.25077,9.11984 18.50001,9.53596 11.2945,0.50813 17.37523,-1.84289 28.97366,-11.20222 1.96939,-1.5892 3.90469,-2.56555 4.30054,-2.16967 0.39584,0.39588 -0.4408,2.82114 -1.85917,5.38945 -2.96617,5.37085 -17.67014,17.30901 -27.32474,22.18501 -7.69595,3.88676 -12.46537,3.88689 -20.24263,5.4e-4 z m -153.24511,-1.60877 -1.29924,-3.59289 -2.70641,2.59289 c -5.08828,4.87489 -5.376,4.29647 -7.1662,-14.40711 -1.13098,-11.81631 -0.7882,-32.633759 0.67826,-41.186109 0.71114,-4.14784 6.20031,-10.81389 8.90473,-10.81389 1.5213,0 1.6567,0.65754 1.06067,5.15067 l -0.68328,5.15068 2.6353,-1.72666 c 4.30054,-2.81784 5.78225,-1.45398 4.95495,4.56094 l -0.70511,5.12685 4.68557,-3.57771 c 9.03827,-6.90123 21.5863,-11.12185 27.16222,-9.1362 6.45005,2.29698 8.07053,8.41296 9.39216,35.447929 l 0.90421,18.4965 -4.98372,4.75351 c -4.98119,4.75099 -7.9367,5.99742 -7.9367,3.34712 0,-0.91405 -0.70009,-1.22329 -1.99997,-0.88337 -2.49676,0.65291 -2.48975,0.0971 0.11914,-9.4122 3.41853,-12.46092 1.28239,-26.754829 -5.16319,-34.548059 -3.9317,-4.75366 -6.68814,-4.8372 -15.11861,-0.45818 l -6.33731,3.29183 0.0887,10.95817 c 0.0585,7.210609 0.6843,13.010109 1.83,16.958179 3.07967,10.61208 3.10146,10.17973 -0.7049,13.98609 -1.93273,1.93266 -4.14359,3.51392 -4.9131,3.51392 -0.76948,0 -1.98376,-1.6168 -2.69827,-3.5929 z M 81.299356,128.65255 c -17.695365,-3.03579 -29.131539,-21.3824 -29.297119,-47.000229 -0.11794,-18.24817 4.71337,-28.74009 19.640871,-42.653074 12.875007,-11.99999 27.558299,-14.2835 42.948872,-6.6793 9.24634,4.56844 15.26486,12.301984 16.39026,21.060774 0.26654,2.07438 1.45353,8.40097 2.63776,14.05908 1.92298,9.18777 2.02423,11.05849 0.94722,17.5 -4.36807,26.124929 -30.5498,47.610219 -53.267864,43.712749 z M 107.64323,116.8596 c 5.78529,-2.55912 11.38867,-8.26592 14.34041,-14.60511 3.29337,-7.072889 2.98831,-8.840379 -0.5927,-3.434039 -4.69336,7.085679 -13.95016,14.521919 -21.713672,17.443199 -3.739097,1.40696 -7.023361,2.80711 -7.298363,3.11144 -1.184067,1.31038 11.246155,-0.73806 15.264325,-2.51549 z m -5.91543,-8.23332 c 12.10757,-3.73965 15.65111,-9.386699 15.65111,-24.941999 0,-13.47107 -4.91895,-28.52536 -11.66275,-35.69348 -5.745538,-6.10706 -17.555358,-5.4252 -25.418832,1.4676 -5.405057,4.73786 -6.142493,6.38294 -6.943945,15.49083 -1.593873,18.11291 2.085381,33.81558 9.709691,41.439889 5.055695,5.0557 8.285856,5.44286 18.664726,2.23716 z M 74.123741,46.169111 c 1.784645,-1.47723 5.609644,-3.98968 8.499993,-5.58322 6.103624,-3.365124 3.714043,-4.005014 -3.216389,-0.861304 -6.829178,3.097784 -10.549163,6.376694 -12.894046,11.365224 -2.908038,6.18658 -2.691652,6.53659 1.115605,1.80457 1.787506,-2.22167 4.710169,-5.24804 6.494837,-6.72527 z m 139.277079,18.23321 c 0.0247,-9.12295 2.02977,-15.08802 6.72407,-20 2.57678,-2.69625 6.25404,-3.72521 6.25404,-1.75 0,0.55 0.62767,1 1.39494,1 1.78956,0 2.64616,7.72095 1.0075,9.0809 -0.63874,0.53018 -1.43956,2.35456 -1.77954,4.05419 -1.0098,5.0491 -9.7671,15.86491 -12.84541,15.86491 -0.42761,0 -0.76767,-3.7125 -0.7556,-8.25 z"
       id="path1017" />
  </g>
</svg>
